Coordinates
version=1
nRows=32
nColumns=22
inDegrees=yes

Units are S.I. units (second, meters, Newtons, ...)
If the header above contains a line with 'inDegrees', this indicates whether rotational values are in degrees (yes) or radians (no).

endheader
time	pelvis_tilt	pelvis_list	pelvis_rotation	pelvis_tx	pelvis_ty	pelvis_tz	hip_flexion_r	hip_adduction_r	hip_rotation_r	knee_angle_r	ankle_angle_r	subtalar_angle_r	hip_flexion_l	hip_adduction_l	hip_rotation_l	knee_angle_l	ankle_angle_l	subtalar_angle_l	lumbar_extension	lumbar_bending	lumbar_rotation
      4.19000000	     13.03929755	     -6.59371240	     14.54800712	      1.13557438	      0.93272486	      0.03848044	      3.58159716	     12.17147658	    -14.23474994	    -19.34302102	      3.67196857	     -4.28296544	     -0.01743114	    -13.17533267	      5.70428897	    -64.50306576	      4.86657098	     -1.78426611	    -11.34855544	      7.41520626	    -14.04911008
      4.20000000	     13.10144782	     -6.71876040	     14.27378664	      1.14155592	      0.93340410	      0.03945022	      2.96277020	     12.51925369	    -13.83734686	    -19.01927928	      3.83833177	     -4.38878170	      1.05472262	    -13.49498490	      5.40562203	    -65.03696261	      5.93094278	     -3.34037329	    -11.49231932	      7.47960460	    -13.52498034
      4.21000000	     13.16949408	     -6.84241513	     13.98001709	      1.14726889	      0.93407795	      0.04039283	      2.34605625	     12.84456077	    -13.46882699	    -18.69390791	      3.97854625	     -4.44857870	      2.07423828	    -13.79847336	      5.08936383	    -65.39112809	      7.06296180	     -4.86919276	    -11.65773729	      7.55166049	    -12.96280912
      4.22000000	     13.23917218	     -6.95606242	     13.66961431	      1.15275579	      0.93476604	      0.04129827	      1.71821848	     13.14313372	    -13.10833185	    -18.34015078	      4.07306791	     -4.44905167	      3.02710468	    -14.07046283	      4.76393311	    -65.54942307	      8.22936973	     -6.33132166	    -11.83503102	      7.61944591	    -12.38894397
      4.23000000	     13.32917021	     -7.05675760	     13.36006862	      1.15797169	      0.93546706	      0.04211630	      1.08004052	     13.41084250	    -12.76461486	    -17.99403192	      4.14276870	     -4.38965057	      3.89798108	    -14.29740276	      4.46553209	    -65.52428800	      9.41831803	     -7.64177910	    -12.05381800	      7.69189539	    -11.79889974
      4.24000000	     13.43701156	     -7.14556832	     13.05443523	      1.16297679	      0.93617848	      0.04284209	      0.42761106	     13.64932962	    -12.45174289	    -17.64787883	      4.19906464	     -4.28723311	      4.67887391	    -14.48404568	      4.19066643	    -65.31283833	     10.60462428	     -8.75293839	    -12.30203735	      7.76707504	    -11.20610202
      4.25000000	     13.56105123	     -7.22027639	     12.76703345	      1.16779050	      0.93688708	      0.04345187	     -0.23235939	     13.85597054	    -12.18472353	    -17.31086695	      4.26472129	     -4.16427991	      5.37109680	    -14.62499301	      3.95877747	    -64.92245614	     11.77752051	     -9.61552037	    -12.57460307	      7.84394413	    -10.62437620
      4.26000000	     13.68836938	     -7.27295251	     12.49133894	      1.17249915	      0.93760196	      0.04397218	     -0.91161359	     14.03175005	    -11.90668523	    -16.94449164	      4.29851982	     -4.05325821	      5.96748662	    -14.71610080	      3.75708696	    -64.34143297	     12.90301429	    -10.14551461	    -12.84451054	      7.90351074	    -10.07783639
      4.27000000	     13.81255864	     -7.32701370	     12.24579811	      1.17707814	      0.93825505	      0.04438130	     -1.56695521	     14.19269816	    -11.66984531	    -16.60020759	      4.35992063	     -3.96370497	      6.50038618	    -14.77849127	      3.62020584	    -63.60663909	     13.97451931	    -10.35788324	    -13.10485586	      7.97544673	     -9.54336659
      4.28000000	     13.92677525	     -7.34324681	     12.02275448	      1.18162350	      0.93889016	      0.04468470	     -2.21612640	     14.29827696	    -11.49544140	    -16.25990759	      4.43434860	     -3.86226127	      6.93754148	    -14.77768806	      3.51200332	    -62.68999909	     15.02096804	    -10.42520198	    -13.33846306	      8.01203609	     -9.08526619
      4.29000000	     14.01352112	     -7.36851340	     11.81458867	      1.18606477	      0.93942023	      0.04491863	     -2.80572555	     14.39483019	    -11.35316223	    -15.95716337	      4.54186554	     -3.77429456	      7.33298461	    -14.76255466	      3.45174546	    -61.64372647	     16.00045728	    -10.29700633	    -13.53269468	      8.06077863	     -8.63650701
      4.30000000	     14.08653027	     -7.36738780	     11.60200572	      1.19040887	      0.93992219	      0.04509141	     -3.37173156	     14.45259125	    -11.19197951	    -15.67245894	      4.65538311	     -3.67135137	      7.63828947	    -14.69702749	      3.41077941	    -60.44870319	     16.90347436	    -10.07108144	    -13.71096345	      8.08339605	     -8.21370968
      4.31000000	     14.13005848	     -7.36286368	     11.36499451	      1.19460917	      0.94034685	      0.04523825	     -3.87010679	     14.48453216	    -11.02611776	    -15.44282969	      4.80004605	     -3.56835273	      7.88562797	    -14.61925030	      3.35651976	    -59.14058260	     17.73200206	     -9.78803992	    -13.86092610	      8.10299445	     -7.79464268
      4.32000000	     14.13086180	     -7.37347280	     11.07891494	      1.19859885	      0.94065772	      0.04538990	     -4.26384288	     14.50073179	    -10.85411867	    -15.30015599	      4.99356666	     -3.48685702	      8.10134374	    -14.55297411	      3.26413509	    -57.75317271	     18.50442874	     -9.53387702	    -13.98015783	      8.13713631	     -7.35174960
      4.33000000	     14.14314637	     -7.35701534	     10.73709102	      1.20232403	      0.94100351	      0.04552141	     -4.64478819	     14.47748059	    -10.55488151	    -15.19348759	      5.15798048	     -3.39298844	      8.20225761	    -14.44549986	      3.14683491	    -56.27403391	     19.16984694	     -9.30363926	    -14.14837128	      8.14865568	     -6.87207254
      4.34000000	     14.11048295	     -7.37229313	     10.32682684	      1.20578803	      0.94121960	      0.04567969	     -4.90059721	     14.45021965	    -10.23725749	    -15.19945489	      5.39132992	     -3.32723541	      8.29370778	    -14.38452258	      2.95052296	    -54.77328087	     19.80866686	     -9.16501995	    -14.29103118	      8.19276952	     -6.33679943
      4.35000000	     14.09707598	     -7.37432259	      9.87589146	      1.20903746	      0.94146354	      0.04581348	     -5.15143397	     14.39881783	     -9.84311455	    -15.24044868	      5.60798243	     -3.26626642	      8.28298181	    -14.31812346	      2.70846192	    -53.23144984	     20.39744169	     -9.08201573	    -14.47885571	      8.23107133	     -5.77963853
      4.36000000	     14.08497973	     -7.37682659	      9.41064334	      1.21215409	      0.94167899	      0.04591992	     -5.37892419	     14.33650981	     -9.44282573	    -15.31383553	      5.84102391	     -3.21273782	      8.21103967	    -14.26687230	      2.43094435	    -51.68321433	     20.95704184	     -9.04151821	    -14.67414192	      8.27299160	     -5.23288626
      4.37000000	     14.08939846	     -7.37106461	      8.96317867	      1.21520096	      0.94188990	      0.04595972	     -5.61676441	     14.26368669	     -9.05196032	    -15.39269185	      6.07356883	     -3.16193312	      8.06884848	    -14.21687732	      2.14837080	    -50.14443492	     21.48201428	     -9.03780497	    -14.87959255	      8.31299475	     -4.72270489
      4.38000000	     14.10658312	     -7.35955087	      8.54904595	      1.21820568	      0.94208745	      0.04592554	     -5.87005472	     14.18706952	     -8.68902204	    -15.45873854	      6.30060186	     -3.10963611	      7.87128577	    -14.16487853	      1.88220991	    -48.63368215	     21.95663013	     -9.06609376	    -15.08540537	      8.35264234	     -4.26592862
      4.39000000	     14.12083059	     -7.34676226	      8.17989472	      1.22116637	      0.94223607	      0.04580509	     -6.11622779	     14.10998575	     -8.36465860	    -15.51937020	      6.51767954	     -3.05572698	      7.65290668	    -14.10990998	      1.64892320	    -47.17810443	     22.37681667	     -9.10370305	    -15.27015964	      8.39651725	     -3.87538742
      4.40000000	     14.12582491	     -7.33545833	      7.85181471	      1.22407920	      0.94233112	      0.04561368	     -6.35097521	     14.03650142	     -8.07733395	    -15.56774767	      6.72006842	     -2.99956885	      7.42502353	    -14.04910599	      1.45872992	    -45.79234341	     22.72254235	     -9.13140685	    -15.42821060	      8.44508605	     -3.54885629
      4.41000000	     14.11712195	     -7.32544011	      7.56106225	      1.22694112	      0.94237300	      0.04533795	     -6.56771221	     13.96324344	     -7.82674807	    -15.60778734	      6.91380958	     -2.94144137	      7.19574960	    -13.98140349	      1.30676504	    -44.48720680	     22.98258822	     -9.12514782	    -15.55344751	      8.50019760	     -3.27805463
      4.42000000	     14.09266471	     -7.31396963	      7.30294788	      1.22974709	      0.94237090	      0.04499847	     -6.76348908	     13.88739103	     -7.60926506	    -15.63957319	      7.09778883	     -2.88205237	      6.96627017	    -13.90364390	      1.19329330	    -43.26696166	     23.15053637	     -9.06509789	    -15.64799648	      8.55358709	     -3.06133101
      4.43000000	     14.05011536	     -7.30203638	      7.07364012	      1.23250687	      0.94233527	      0.04457588	     -6.93507070	     13.80826993	     -7.42450951	    -15.66746144	      7.27456944	     -2.82372818	      6.73779734	    -13.81537708	      1.11428155	    -42.13367002	     23.21367680	     -8.94419005	    -15.70344212	      8.61046611	     -2.89573071
      4.44000000	     13.96592141	     -7.28511493	      6.87500792	      1.23517233	      0.94223277	      0.04406980	     -7.04535517	     13.72015346	     -7.24531662	    -15.70470744	      7.42621803	     -2.77707524	      6.54637574	    -13.70196961	      1.09806975	    -41.10031739	     23.19385606	     -8.79888822	    -15.70217250	      8.66675624	     -2.81674629
      4.45000000	     13.93707827	     -7.26913975	      6.68640661	      1.23783582	      0.94224744	      0.04352565	     -7.23959346	     13.63544319	     -7.11935350	    -15.69205759	      7.59781299	     -2.70311387	      6.25310313	    -13.61594151	      1.02249004	    -40.13403731	     22.99489309	     -8.53550243	    -15.74872768	      8.72163805	     -2.70211107
      4.46000000	     13.85680456	     -7.24996482	      6.52655933	      1.24041159	      0.94219613	      0.04287884	     -7.36190003	     13.54249628	     -6.99154809	    -15.68918873	      7.73738799	     -2.63519457	      6.00852433	    -13.50712013	      0.99671012	    -39.26830500	     22.73116689	     -8.28253401	    -15.72392507	      8.77897185	     -2.67138517
      4.47000000	     13.76762272	     -7.22868394	      6.38681387	      1.24291772	      0.94215556	      0.04216831	     -7.47030593	     13.44646901	     -6.88028172	    -15.67950697	      7.86671957	     -2.56590471	      5.75566801	    -13.40042518	      0.96211370	    -38.48914402	     22.39744040	     -8.05962172	    -15.68170735	      8.83435589	     -2.67990213
      4.48000000	     13.67135463	     -7.19960036	      6.26932144	      1.24535360	      0.94213494	      0.04137791	     -7.56759096	     13.34118226	     -6.77874470	    -15.66283888	      7.98396552	     -2.49455816	      5.49338357	    -13.29100041	      0.90688562	    -37.79174856	     22.01921511	     -7.89096643	    -15.62341859	      8.88387112	     -2.72383175
      4.49000000	     13.54337816	     -7.17311993	      6.17754599	      1.24771162	      0.94209354	      0.04050346	     -7.62562073	     13.23819954	     -6.67985175	    -15.63669955	      8.07716111	     -2.44336385	      5.25954762	    -13.18430086	      0.84470052	    -37.18044585	     21.63681146	     -7.83602550	    -15.52079748	      8.94103438	     -2.81807158
      4.50000000	     13.44273929	     -7.11942592	      6.09701456	      1.25004758	      0.94214587	      0.03957028	     -7.72391403	     13.10443951	     -6.62272271	    -15.59356827	      8.18505173	     -2.37297042	      4.95315808	    -13.07236485	      0.68866105	    -36.59844126	     21.27984234	     -7.78255000	    -15.44170837	      8.96643409	     -2.91504813
